<svg width="544" height="597" viewBox="0 0 544 597" fill="none" xmlns="http://www.w3.org/2000/svg">
<path opacity="0.5" d="M538.052 501.282L378.336 593.52C371.212 597.647 360.4 598.085 354.221 594.511L4.17258 392.399C-2.00584 388.826 -1.22201 382.601 5.90161 378.474L165.618 286.236C172.742 282.109 183.554 281.671 189.733 285.245L539.781 487.357C545.96 490.931 545.199 497.155 538.052 501.282Z" fill="#13247A"/>
<path d="M543.954 443.37L511.057 437.653L189.733 252.139C183.554 248.566 172.765 249.027 165.619 253.13L16.7602 339.098L0 336.17V353.184H0.0230763C2.2514e-05 355.466 1.36017 357.633 4.17273 359.27L354.222 561.383C360.4 564.956 371.189 564.495 378.336 560.391L538.053 468.153C542.018 465.871 544 462.92 543.954 460.153V443.37Z" fill="url(#paint0_linear)"/>
<path d="M538.052 451.232L378.336 543.47C371.212 547.597 360.4 548.035 354.222 544.462L4.19565 342.372C-1.98277 338.799 -1.19894 332.574 5.92469 328.448L165.641 236.209C172.765 232.083 183.577 231.645 189.756 235.218L539.805 437.331C545.96 440.881 545.199 447.105 538.052 451.232Z" fill="url(#paint1_linear)"/>
<path d="M538.053 449.066L378.336 541.304C371.212 545.43 360.4 545.869 354.222 542.295L4.1729 340.183C1.84447 338.845 0.507464 337.116 0.11555 335.249C-0.36858 337.9 0.945368 340.482 4.1729 342.35L354.222 544.462C360.4 548.036 371.189 547.575 378.336 543.471L538.053 451.233C542.502 448.674 544.462 445.285 543.839 442.242C543.401 444.662 541.465 447.083 538.053 449.066Z" fill="white"/>
<path d="M538.306 436.455L352.769 543.609L5.69434 343.226L191.231 236.072L538.306 436.455Z" fill="#0F65B2"/>
<path d="M109.713 278.029L85.0684 292.253C84.0079 292.875 82.3711 292.945 81.449 292.414L81.1954 292.276C80.2732 291.746 80.3885 290.801 81.449 290.178L106.093 275.954C107.154 275.331 108.791 275.262 109.713 275.816L109.966 275.954C110.889 276.461 110.773 277.406 109.713 278.029Z" fill="#0063AD"/>
<path d="M50.8798 344.977L47.7676 346.776L40.3904 342.511L43.5027 340.712L50.8798 344.977Z" fill="white"/>
<path d="M56.6203 341.657L53.5081 343.456L46.1309 339.214L49.2432 337.416L56.6203 341.657Z" fill="white"/>
<path d="M62.3376 338.362L59.2253 340.16L51.8711 335.895L54.9834 334.097L62.3376 338.362Z" fill="white"/>
<path d="M68.078 335.041L64.9657 336.839L57.5885 332.598L60.7007 330.799L68.078 335.041Z" fill="white"/>
<path d="M173.434 26.1196C179.497 26.1196 184.407 31.0301 184.407 37.0932C184.407 43.1564 179.497 48.0668 173.434 48.0668C167.37 48.0668 162.46 43.1564 162.46 37.0932C162.46 31.0301 167.37 26.1196 173.434 26.1196Z" fill="white"/>
<path d="M138.023 26.1196C144.086 26.1196 148.996 31.0301 148.996 37.0932C148.996 43.1564 144.086 48.0668 138.023 48.0668C131.96 48.0668 127.049 43.1564 127.049 37.0932C127.072 31.0301 131.96 26.1196 138.023 26.1196Z" fill="#7BDAFF"/>
<path opacity="0.5" d="M102.635 26.1196C108.698 26.1196 113.609 31.0301 113.609 37.0932C113.609 43.1564 108.698 48.0668 102.635 48.0668C96.5717 48.0668 91.6613 43.1564 91.6613 37.0932C91.6613 31.0301 96.5717 26.1196 102.635 26.1196Z" fill="#7BDAFF"/>
<path opacity="0.1" d="M67.2246 26.1196C73.2878 26.1196 78.1982 31.0301 78.1982 37.0932C78.1982 43.1564 73.2878 48.0668 67.2246 48.0668C61.1615 48.0668 56.251 43.1564 56.251 37.0932C56.251 31.0301 61.1615 26.1196 67.2246 26.1196Z" fill="#7BDAFF"/>
<path opacity="0.6" d="M234.596 401.505C268.845 401.505 296.61 385.476 296.61 365.702C296.61 345.929 268.845 329.9 234.596 329.9C200.346 329.9 172.581 345.929 172.581 365.702C172.581 385.476 200.346 401.505 234.596 401.505Z" fill="#041860"/>
<path d="M234.596 421.747C209.951 421.747 185.284 416.329 166.518 405.494C148.167 394.912 138.069 380.78 138.069 365.703C138.069 350.626 148.167 336.517 166.518 325.935C204.049 304.264 265.119 304.264 302.674 325.935C321.024 336.517 331.122 350.649 331.122 365.726C331.122 380.78 321.024 394.912 302.674 405.494C283.885 416.329 259.24 421.747 234.596 421.747ZM234.596 311.296C210.251 311.296 185.883 316.644 167.348 327.341C149.55 337.623 139.729 351.248 139.729 365.68C139.729 380.135 149.527 393.736 167.348 404.018C204.418 425.435 264.773 425.435 301.844 404.018C319.641 393.736 329.462 380.111 329.462 365.68C329.462 351.225 319.664 337.623 301.844 327.341C283.285 316.667 258.941 311.296 234.596 311.296Z" fill="white"/>
<path d="M485.467 154.668L219.288 0.991723C217.213 -0.207074 215.322 -0.276224 213.87 0.553713V0.530654L209.905 2.83603C209.905 2.83603 210.827 2.97436 211.726 3.08963C211.242 4.21926 210.965 5.60248 210.965 7.2393V190.632C210.965 196.741 214.677 203.842 219.264 206.493L485.444 360.17C485.951 360.47 486.435 360.677 486.919 360.838V362.913L490.907 360.585H490.884C492.636 359.57 493.766 357.219 493.766 353.876V170.483C493.766 164.42 490.054 157.32 485.467 154.668Z" fill="white"/>
<path d="M481.617 362.452L215.438 208.775C210.85 206.124 207.138 199.024 207.138 192.914V9.52133C207.138 3.41207 210.85 0.599509 215.438 3.2507L481.617 156.927C486.205 159.578 489.916 166.679 489.916 172.788V356.181C489.916 362.291 486.205 365.103 481.617 362.452Z" fill="url(#paint2_linear)"/>
<path d="M402.242 166.449V140.26L407.798 143.464C408.859 144.064 409.758 144.709 410.541 145.378C411.325 146.046 412.017 146.807 412.616 147.66C413.216 148.513 413.677 149.458 414 150.542C414.299 151.602 414.461 152.755 414.461 154C414.461 157.227 413.331 158.38 411.118 157.481C412.455 158.541 413.469 159.809 414.115 161.239C414.783 162.668 415.106 164.351 415.129 166.287C415.129 168.777 414.599 170.345 413.516 171.014C412.432 171.682 410.841 171.405 408.766 170.207L402.242 166.449ZM406.369 153.331L407.66 154.069C408.882 154.761 409.712 154.945 410.173 154.622C410.634 154.276 410.864 153.4 410.864 151.994C410.864 151.256 410.795 150.611 410.634 150.081C410.472 149.527 410.242 149.043 409.873 148.605C409.527 148.167 409.112 147.798 408.697 147.476C408.259 147.153 407.683 146.784 406.968 146.369L406.392 146.046V153.331H406.369ZM406.369 165.458L407.89 166.334C409.112 167.048 409.965 167.21 410.449 166.818C410.933 166.426 411.164 165.481 411.164 163.936C411.164 162.345 410.887 161.054 410.357 160.04C409.827 159.026 408.928 158.15 407.66 157.435L406.369 156.674V165.458Z" fill="white"/>
<path d="M416.582 174.726L421.193 151.211L425.504 153.701L430.092 182.541L426.242 180.328L425.32 173.711L421.401 171.452L420.478 176.985L416.582 174.726ZM421.839 168.57L424.882 170.323L423.36 158.703L421.839 168.57Z" fill="white"/>
<path d="M432.328 183.808V157.619L435.163 159.255L440.719 177.284V162.46L444.131 164.443V190.632L441.434 189.064L435.832 170.252V185.837L432.328 183.808Z" fill="white"/>
<path d="M447.521 192.591V166.402L451.647 168.8V180.165L456.097 171.359L460.039 173.641L455.705 182.863L460.5 200.084L456.373 197.709L452.454 183.139L451.624 184.361V194.966L447.521 192.591Z" fill="white"/>
<path d="M280.611 208.384L230.077 179.198V172.443L280.611 201.629V208.384Z" fill="white"/>
<path d="M342.717 244.232L292.207 215.069V208.314L342.717 237.477V244.232Z" fill="white"/>
<path d="M404.825 280.104L354.314 250.918V244.163L404.825 273.349V280.104Z" fill="white"/>
<path d="M466.954 315.953L416.42 286.79V280.035L466.954 309.198V315.953Z" fill="white"/>
<path opacity="0.2" d="M266.986 75.4097L207.115 70.5684V192.938C207.115 199.047 210.827 206.148 215.415 208.799L330.591 275.309C360.354 233.121 353.622 168.478 353.622 168.478L266.986 75.4097Z" fill="#041860"/>
<path d="M333.174 182.725L246.515 89.6802L159.855 82.6719C159.855 82.6719 145.931 200.154 246.515 324.76C347.098 316.299 333.174 182.725 333.174 182.725Z" fill="url(#paint3_linear)"/>
<path d="M159.855 82.6719L140.352 93.9221L227.011 100.93L246.515 89.6802L159.855 82.6719Z" fill="url(#paint4_linear)"/>
<path d="M313.67 193.999L227.011 100.954L191.37 97.3573L140.352 93.9453C140.352 93.9453 126.427 211.427 227.011 336.033C327.595 327.549 313.67 193.999 313.67 193.999Z" fill="url(#paint5_linear)"/>
<path d="M313.67 193.998L227.011 100.953L140.352 93.9449C142.796 92.5386 142.796 92.5386 142.796 92.5386L230.607 99.6391L317.267 192.684C317.267 192.684 328.886 304.334 253.984 329.924C324.921 302.028 313.67 193.998 313.67 193.998Z" fill="white"/>
<path opacity="0.2" d="M303.158 195.429L225.236 111.766L193.191 108.539L147.314 105.473C147.314 105.473 134.796 211.105 225.236 323.124C315.676 315.516 303.158 195.429 303.158 195.429Z" fill="white"/>
<path d="M170.079 137.134L167.015 134.07L163.95 137.134L167.015 140.199L170.079 137.134Z" fill="white"/>
<path d="M181.196 137.062L178.131 133.997L175.066 137.062L178.131 140.126L181.196 137.062Z" fill="white"/>
<path d="M175.636 131.582L172.572 128.517L169.507 131.582L172.572 134.646L175.636 131.582Z" fill="white"/>
<path d="M175.639 142.614L172.574 139.55L169.51 142.614L172.574 145.679L175.639 142.614Z" fill="white"/>
<path d="M488.764 120.802L482.447 114.485L497.594 99.3391L482.447 84.1927L488.764 77.876L510.227 99.3391L488.764 120.802ZM484.983 114.485L488.764 118.266L507.714 99.316L488.764 80.3658L484.983 84.1466L500.129 99.293L484.983 114.485Z" fill="white"/>
<path opacity="0.5" d="M465.272 79.1431L460.223 84.1919L475.392 99.3382L460.223 114.485L465.272 119.533L480.441 104.387L485.49 99.3382L465.272 79.1431Z" fill="#7BDAFF"/>
<path d="M364.872 486.483C364.25 486.483 363.719 485.999 363.673 485.376C363.627 484.708 364.111 484.132 364.78 484.062C383.085 482.61 401.366 477.054 416.305 468.432C432.535 459.072 442.241 449.735 445.169 440.721C445.376 440.099 446.045 439.73 446.69 439.937C447.336 440.145 447.681 440.837 447.474 441.459C444.339 451.072 434.264 460.847 417.504 470.53C402.265 479.336 383.615 484.985 364.964 486.483C364.941 486.483 364.895 486.483 364.872 486.483Z" fill="white"/>
<path d="M447.29 435.81C446.645 435.81 446.114 435.303 446.091 434.634C445.838 427.442 440.604 420.71 430.968 415.154C409.666 402.866 381.886 402.912 352.746 415.338C352.124 415.592 351.409 415.315 351.156 414.693C350.902 414.07 351.179 413.356 351.801 413.102C381.656 400.376 410.196 400.353 432.167 413.056C442.564 419.05 448.212 426.496 448.489 434.542C448.512 435.211 447.982 435.764 447.313 435.787C447.313 435.81 447.313 435.81 447.29 435.81Z" fill="white"/>
<path d="M346.406 486.435C346.36 486.435 346.337 486.435 346.291 486.435C336.124 485.49 327.156 482.908 320.379 479.012C312.863 474.678 308.183 468.822 306.846 462.068C306.662 461.122 306.938 460.177 307.63 459.37C308.829 457.987 311.088 457.226 313.578 457.365C316.413 457.526 318.649 458.817 319.157 460.615C320.494 465.295 323.952 469.283 329.393 472.419C348.32 483.346 384.745 480.073 410.588 465.157C427.279 455.52 436.086 445.699 436.086 436.754C436.086 430.461 431.613 424.559 423.175 419.672C401.366 407.084 371.789 409.735 341.98 426.934C331.237 433.135 323.514 440.743 320.263 448.351C319.595 449.918 317.566 450.979 315.076 451.048C312.633 451.094 310.512 450.241 309.612 448.812C309.059 447.959 309.013 446.944 309.451 446.045C313.831 437.146 322.707 428.663 335.064 421.539C335.64 421.193 336.378 421.401 336.724 421.977C337.069 422.553 336.862 423.291 336.286 423.637C324.344 430.53 315.814 438.645 311.641 447.129C311.572 447.244 311.572 447.336 311.664 447.498C312.033 448.074 313.324 448.65 315.03 448.627C316.782 448.581 317.866 447.889 318.05 447.405C321.508 439.313 329.577 431.314 340.781 424.836C371.35 407.176 401.828 404.525 424.397 417.574C433.642 422.899 438.529 429.539 438.529 436.754C438.529 446.76 429.538 457.019 411.81 467.255C385.275 482.562 347.767 485.836 328.194 474.517C322.246 471.082 318.327 466.517 316.828 461.261C316.644 460.615 315.307 459.877 313.462 459.762C311.526 459.647 310.05 460.292 309.497 460.938C309.22 461.261 309.244 461.491 309.267 461.56C310.465 467.6 314.753 472.903 321.623 476.891C328.102 480.626 336.724 483.093 346.545 484.015C347.213 484.084 347.697 484.66 347.628 485.329C347.559 485.974 347.029 486.435 346.406 486.435Z" fill="white"/>
<path d="M376.929 473.941C374.993 473.941 373.103 473.273 372.088 472.166C371.327 471.336 371.097 470.276 371.42 469.308C371.858 467.993 373.241 466.979 375.154 466.587C383.385 464.927 391.338 461.953 398.185 458.011C409.389 451.556 415.729 445.078 416.536 439.338C416.928 436.479 415.936 433.805 413.585 431.361C412.778 430.531 412.455 429.517 412.709 428.479C413.009 427.188 414.161 426.128 415.867 425.528C418.818 424.491 422.484 425.113 424.213 426.958C427.509 430.462 429.031 434.312 428.708 438.439C428.247 444.433 423.913 450.611 415.844 456.835C415.314 457.25 414.553 457.135 414.138 456.605C413.723 456.075 413.839 455.314 414.369 454.899C421.884 449.112 425.896 443.487 426.311 438.231C426.587 434.819 425.273 431.592 422.461 428.595C421.515 427.58 418.841 427.027 416.674 427.788C415.614 428.156 415.153 428.687 415.084 429.009C415.06 429.079 415.014 429.309 415.337 429.632C418.242 432.629 419.464 435.995 418.957 439.637C418.034 446.254 411.464 453.124 399.43 460.086C392.375 464.167 384.145 467.233 375.661 468.962C374.509 469.192 373.863 469.699 373.748 470.068C373.725 470.138 373.679 470.276 373.932 470.552C374.578 471.267 376.399 471.797 378.197 471.405C387.58 469.377 396.617 465.965 404.317 461.515C404.894 461.17 405.631 461.377 405.977 461.953C406.3 462.53 406.116 463.267 405.539 463.613C397.632 468.178 388.341 471.705 378.705 473.757C378.082 473.872 377.506 473.941 376.929 473.941Z" fill="white"/>
<path d="M357.726 475.809C357.634 475.809 357.542 475.809 357.45 475.809C348.551 475.532 340.874 473.665 335.249 470.414C328.886 466.749 325.543 461.608 325.543 455.568C325.543 446.392 333.589 436.248 347.052 428.479C368.4 416.146 389.725 412.203 407.108 417.321C408.975 417.875 410.266 418.958 410.658 420.272C410.957 421.287 410.704 422.324 409.943 423.177C408.375 424.975 404.825 425.69 401.874 424.814C389.448 421.079 373.772 423.73 357.726 432.237C357.127 432.56 356.896 432.883 356.896 433.09C356.896 433.321 357.173 433.62 357.588 433.851C358.902 434.612 361.184 434.635 362.568 433.92C378.521 425.482 393.414 423.938 403.373 429.701C407.384 432.03 409.505 435.05 409.505 438.485C409.505 444.11 403.972 450.15 393.091 456.444C378.152 465.066 358.464 467.74 349.196 462.391C346.292 460.709 344.54 458.357 344.125 455.591C343.571 451.925 345.277 447.798 349.104 443.672C349.335 443.441 349.289 443.303 349.289 443.257C349.242 443.003 348.874 442.634 348.182 442.335C346.315 441.574 343.825 442.035 342.995 442.911C338.799 447.476 336.817 452.179 337.416 456.213C337.9 459.441 339.975 462.138 343.594 464.236C347.237 466.334 352.263 467.625 358.095 467.97C361.184 468.155 363.421 469.676 363.513 471.728C363.559 472.65 363.236 473.457 362.568 474.126C361.484 475.163 359.709 475.809 357.726 475.809ZM391.339 417.552C377.967 417.552 363.144 421.978 348.274 430.577C335.549 437.908 327.964 447.268 327.964 455.568C327.964 460.709 330.892 465.112 336.471 468.316C341.75 471.359 349.035 473.111 357.519 473.365C359.11 473.411 360.308 472.904 360.815 472.374C360.931 472.259 361.092 472.051 361.069 471.867C361.046 471.244 359.824 470.437 357.934 470.322C351.709 469.976 346.338 468.57 342.372 466.264C338.154 463.821 335.618 460.455 335.018 456.513C334.304 451.741 336.494 446.3 341.197 441.205C342.81 439.453 346.43 438.923 349.081 440.029C350.487 440.606 351.387 441.551 351.64 442.657C351.848 443.556 351.571 444.479 350.879 445.239C347.629 448.767 346.084 452.271 346.522 455.153C346.845 457.204 348.136 458.91 350.418 460.224C359.017 465.181 377.622 462.53 391.892 454.277C401.713 448.605 407.108 442.98 407.108 438.416C407.108 435.88 405.448 433.62 402.174 431.73C392.952 426.404 378.936 427.949 363.72 435.995C361.599 437.124 358.464 437.078 356.412 435.88C355.19 435.165 354.476 434.104 354.499 432.975C354.522 431.799 355.283 430.739 356.62 430.024C373.241 421.217 389.564 418.52 402.589 422.416C404.825 423.085 407.292 422.485 408.145 421.517C408.445 421.171 408.375 420.964 408.352 420.872C408.237 420.457 407.592 419.903 406.439 419.558C401.69 418.243 396.641 417.552 391.339 417.552Z" fill="white"/>
<path d="M363.49 459.786C360.539 459.786 358.095 459.279 356.32 458.265C354.383 457.135 353.346 455.475 353.346 453.447C353.346 449.113 358.003 443.833 365.818 439.315C378.498 431.984 389.586 430.001 396.226 433.828C399.085 435.465 399.73 437.54 399.753 438.969C399.845 442.496 396.549 446.484 389.978 450.772C387.927 452.11 384.468 452.179 382.278 450.911C381.103 450.219 380.411 449.205 380.365 448.121C380.342 447.038 380.918 446.069 382.025 445.355C387.304 441.92 387.304 440.514 387.304 440.514C385.829 439.661 381.379 440.398 373.287 445.055C367.685 448.283 365.38 451.049 365.38 451.833C365.38 452.501 364.85 453.055 364.181 453.055C363.513 453.055 362.982 452.524 362.959 451.856C362.936 448.513 369.945 444.202 372.089 442.98C377.621 439.776 384.953 436.387 388.411 438.37C389.241 438.854 389.702 439.591 389.725 440.467C389.748 441.666 389.125 443.672 383.339 447.43C382.993 447.66 382.786 447.914 382.786 448.098C382.786 448.26 382.97 448.559 383.477 448.859C384.883 449.666 387.35 449.643 388.641 448.79C396.295 443.81 397.379 440.56 397.333 439.084C397.309 437.885 396.526 436.848 395.004 435.972C392.238 434.381 383.938 431.707 367.017 441.459C360.17 445.401 355.743 450.127 355.743 453.493C355.743 454.645 356.32 455.545 357.495 456.213C360.446 457.919 366.233 457.827 372.965 455.96C373.61 455.775 374.279 456.167 374.463 456.813C374.648 457.458 374.256 458.127 373.61 458.311C369.898 459.279 366.44 459.786 363.49 459.786Z" fill="white"/>
<path d="M343.432 418.104C343.294 418.104 343.178 418.081 343.04 418.011L311.133 399.591C310.765 399.384 310.649 398.9 310.857 398.531C311.064 398.162 311.525 398.047 311.917 398.254L343.824 416.674C344.193 416.882 344.308 417.366 344.1 417.735C343.939 417.965 343.685 418.104 343.432 418.104Z" fill="white"/>
<defs>
<linearGradient id="paint0_linear" x1="36.9525" y1="282.911" x2="498.394" y2="526.045" gradientUnits="userSpaceOnUse">
<stop stop-color="#3A9BD5"/>
<stop offset="0.3053" stop-color="#3A9BD5"/>
<stop offset="0.3555" stop-color="#3A9BD5"/>
<stop offset="0.5988" stop-color="#3999D4"/>
<stop offset="0.6883" stop-color="#3592CF"/>
<stop offset="0.7522" stop-color="#2F86C7"/>
<stop offset="0.8039" stop-color="#2676BC"/>
<stop offset="0.8102" stop-color="#2573BA"/>
</linearGradient>
<linearGradient id="paint1_linear" x1="49.5873" y1="437.791" x2="459.607" y2="264.909" gradientUnits="userSpaceOnUse">
<stop stop-color="#59BDEF"/>
<stop offset="1" stop-color="#7BDAFF"/>
</linearGradient>
<linearGradient id="paint2_linear" x1="586.612" y1="360.751" x2="100.277" y2="311.586" gradientUnits="userSpaceOnUse">
<stop stop-color="#59BDEF"/>
<stop offset="1" stop-color="#7BDAFF"/>
</linearGradient>
<linearGradient id="paint3_linear" x1="221.445" y1="181.12" x2="481.984" y2="261.069" gradientUnits="userSpaceOnUse">
<stop stop-color="#2573BA"/>
<stop offset="0.907" stop-color="#0364AE"/>
<stop offset="1" stop-color="#0063AD"/>
</linearGradient>
<linearGradient id="paint4_linear" x1="246.513" y1="91.8009" x2="140.355" y2="91.8009" gradientUnits="userSpaceOnUse">
<stop stop-color="#0063AD"/>
<stop offset="1" stop-color="#2573BA"/>
</linearGradient>
<linearGradient id="paint5_linear" x1="139.7" y1="168.056" x2="314.328" y2="168.056" gradientUnits="userSpaceOnUse">
<stop stop-color="#7BDAFF"/>
<stop offset="1" stop-color="#59BDEF"/>
</linearGradient>
</defs>
</svg>
