<svg width="70" height="70" viewBox="0 0 70 70" fill="none" xmlns="http://www.w3.org/2000/svg">
<path d="M21.1935 28.7564C20.2262 27.7011 18.5553 27.6131 17.5 28.5805C16.4448 29.5478 16.3568 31.2187 17.3242 32.2739L30.603 46.696C31.1307 47.2237 31.7463 47.5754 32.4498 47.5754C32.4498 47.5754 32.4498 47.5754 32.5377 47.5754C33.2412 47.5754 33.9448 47.3116 34.3845 46.784L67.9774 13.279C69.0327 12.2237 69.0327 10.5528 67.9774 9.5855C66.9221 8.61816 65.2513 8.53022 64.2839 9.5855L32.6257 41.1558L21.1935 28.7564Z" fill="#144175"/>
<path d="M67.3618 32.3618C65.8668 32.3618 64.7236 33.505 64.7236 35C64.7236 51.3568 51.3568 64.7236 35 64.7236C18.6432 64.7236 5.27638 51.3568 5.27638 35C5.27638 18.6432 18.6432 5.27638 35 5.27638C36.495 5.27638 37.6382 4.13317 37.6382 2.63819C37.6382 1.14322 36.495 0 35 0C15.7412 0 0 15.7412 0 35C0 54.2588 15.7412 70 35 70C54.2588 70 70 54.2588 70 35C70 33.505 68.8568 32.3618 67.3618 32.3618Z" fill="#144378"/>
</svg>
